<?xml version="1.0" encoding="utf-8"?>
<!-- Generator: Adobe Illustrator 23.0.5, SVG Export Plug-In . SVG Version: 6.00 Build 0)  -->
<svg version="1.1" id="Layer_1" xmlns="http://www.w3.org/2000/svg" xmlns:xlink="http://www.w3.org/1999/xlink" x="0px" y="0px"
	 viewBox="0 0 203 135" style="enable-background:new 0 0 203 135;" xml:space="preserve">
<style type="text/css">
	.st0{clip-path:url(#SVGID_2_);}
	.st1{fill:#F9A01B;}
	.st2{opacity:0.7;fill:#F9A01B;enable-background:new    ;}
	.st3{fill:#FFFFFF;stroke:#2E353A;stroke-linecap:round;stroke-linejoin:round;}
	.st4{fill:#2E353A;stroke:#2E353A;stroke-linecap:round;stroke-linejoin:round;}
	.st5{fill:#92E3A9;}
	.st6{fill:#B8482A;}
	.st7{fill:none;stroke:#2E353A;stroke-width:0.5;stroke-linecap:round;stroke-linejoin:round;}
	.st8{fill:#2E353A;}
	.st9{fill:#FFFFFF;stroke:#2E353A;stroke-miterlimit:10;}
	.st10{fill:none;stroke:#2E353A;stroke-linecap:round;stroke-linejoin:round;}
	.st11{fill:#92E3A9;stroke:#2E353A;stroke-width:0.5;stroke-linecap:round;stroke-linejoin:round;}
	.st12{fill:none;stroke:#FFFFFF;stroke-linecap:round;stroke-linejoin:round;}
	.st13{fill:#FFFFFF;}
</style>
<g>
	<defs>
		<rect id="SVGID_1_" width="203" height="135"/>
	</defs>
	<clipPath id="SVGID_2_">
		<use xlink:href="#SVGID_1_"  style="overflow:visible;"/>
	</clipPath>
	<g id="freepik--background-simple--inject-1--inject-142" class="st0">
		<path class="st1" d="M176.08,43.14c1-7.92,3.39-15.42-0.84-23.04c-7.75-13.98-31.12-21.4-49.28-14.78
			c-9.29,3.38-17.23,8.32-27.46,10.13C70.91,20.35,28.3-5.71,13.27,24.63c-5.16,10.41-3.08,24.13,6.25,32.84
			c2.99,2.79,6.65,5.22,8.87,8.42c6.06,8.74-2.52,18.35-6.39,26.5c-9.19,19.27,25.46,29.93,44.27,31.89
			c31.09,3.27,56.73-24.08,87.65-12.94c21.55,7.76,40.45-11.14,36.5-30.05c-2.59-12.38-15.7-24.22-14.48-36.84
			C175.98,44.02,176.03,43.59,176.08,43.14z"/>
		<path class="st2" d="M176.08,43.14c1-7.92,3.39-15.42-0.84-23.04c-7.75-13.98-31.12-21.4-49.28-14.78
			c-9.29,3.38-17.23,8.32-27.46,10.13C70.91,20.35,28.3-5.71,13.27,24.63c-5.16,10.41-3.08,24.13,6.25,32.84
			c2.99,2.79,6.65,5.22,8.87,8.42c6.06,8.74-2.52,18.35-6.39,26.5c-9.19,19.27,25.46,29.93,44.27,31.89
			c31.09,3.27,56.73-24.08,87.65-12.94c21.55,7.76,40.45-11.14,36.5-30.05c-2.59-12.38-15.7-24.22-14.48-36.84
			C175.98,44.02,176.03,43.59,176.08,43.14z"/>
	</g>
	<g id="freepik--Plant--inject-1--inject-142" class="st0">
		<ellipse class="st3" cx="37.56" cy="36.64" rx="12.58" ry="11.66"/>
		<ellipse class="st3" cx="36.63" cy="35.48" rx="12.58" ry="11.66"/>
		<ellipse class="st4" cx="36.63" cy="35.48" rx="11.33" ry="10.5"/>
		<path class="st5" d="M35.3,27.59c0,0-1.25-2.9-3.44-4.92s-11.1-3.33-11.1-3.33c1.44,1.29,2.75,2.69,3.91,4.2
			c2.03,2.61,8.75,8.54,8.75,8.54s-3.28-2.61-6.25-2.9c-2.97-0.29-10.47,1.16-10.93,1.16c-0.46,0,2.81,1.16,5.16,2.17
			c2.35,1.01,11.41,1.88,11.41,1.88s-3.91,1.01-6.56,1.88c-2.65,0.87-5.17,7.24-5.17,7.24s3.44-2.9,6.41-3.62
			c2.97-0.72,7.19-2.03,7.19-2.03s-2.66,2.75-3.28,4.64c-0.62,1.88-0.16,6.23-0.16,6.23s1.41-4.05,3.13-5.65
			c1.72-1.6,3.59-4.33,3.59-4.33c0.87,1.31,1.65,2.66,2.35,4.05c1.25,2.46,2.03,6.08,2.03,6.08s2.03-4.05,1.88-6.08
			c-0.16-2.03-2.5-5.65-2.5-5.65s1.56-1.01,3.91-0.15s6.41,4.49,6.41,4.49s-0.94-4.78-2.5-6.66s-8.28-2.46-8.28-2.46
			s3.75-2.03,6.1-2.46c2.34-0.44,5.47,0.58,5.47,0.58s-3.59-4.64-6.41-4.93c-2.81-0.29-7.03,3.75-7.03,3.75l1.25-5.79
			c0.31-1.45-0.31-5.06-0.31-5.06s-1.72,0.87-3.75,3.62C35.34,23.69,34.89,25.67,35.3,27.59z"/>
		<path class="st6" d="M35.3,27.59c0,0-1.25-2.9-3.44-4.92s-11.1-3.33-11.1-3.33c1.44,1.29,2.75,2.69,3.91,4.2
			c2.03,2.61,8.75,8.54,8.75,8.54s-3.28-2.61-6.25-2.9c-2.97-0.29-10.47,1.16-10.93,1.16c-0.46,0,2.81,1.16,5.16,2.17
			c2.35,1.01,11.41,1.88,11.41,1.88s-3.91,1.01-6.56,1.88c-2.65,0.87-5.17,7.24-5.17,7.24s3.44-2.9,6.41-3.62
			c2.97-0.72,7.19-2.03,7.19-2.03s-2.66,2.75-3.28,4.64c-0.62,1.88-0.16,6.23-0.16,6.23s1.41-4.05,3.13-5.65
			c1.72-1.6,3.59-4.33,3.59-4.33c0.87,1.31,1.65,2.66,2.35,4.05c1.25,2.46,2.03,6.08,2.03,6.08s2.03-4.05,1.88-6.08
			c-0.16-2.03-2.5-5.65-2.5-5.65s1.56-1.01,3.91-0.15s6.41,4.49,6.41,4.49s-0.94-4.78-2.5-6.66s-8.28-2.46-8.28-2.46
			s3.75-2.03,6.1-2.46c2.34-0.44,5.47,0.58,5.47,0.58s-3.59-4.64-6.41-4.93c-2.81-0.29-7.03,3.75-7.03,3.75l1.25-5.79
			c0.31-1.45-0.31-5.06-0.31-5.06s-1.72,0.87-3.75,3.62C35.34,23.69,34.89,25.67,35.3,27.59z"/>
		<path class="st7" d="M38.38,23.18c0.11-0.42,0.23-0.83,0.36-1.24"/>
		<path class="st7" d="M27.94,23.18c1.46,0.99,3.28,2.36,4.23,3.54c1.72,2.17,5.16,6.81,5.16,6.81c-0.1-3.11,0.17-6.23,0.79-9.29"/>
		<path class="st7" d="M25.76,21.79c0,0,0.46,0.27,1.14,0.71"/>
		<path class="st7" d="M37.33,33.53c0,0,5.94-5.5,8.44-5.94c2.5-0.44,4.69,1.3,4.69,1.3"/>
		<path class="st7" d="M26.72,38.13c-1.46,0.85-1.58,1.35-1.58,1.35"/>
		<path class="st7" d="M50.3,38.59c0,0-0.94-2.17-4.22-3.19s-8.44-1.16-8.44-1.16s-7.23,2.19-9.88,3.34"/>
		<path class="st7" d="M34.48,33.42c1.75,0.47,3.16,0.83,3.16,0.83"/>
		<path class="st7" d="M23.48,30.85c1.7,0.09,3.88,0.31,5.1,0.79c0.99,0.4,2.94,0.97,4.79,1.48"/>
		<path class="st7" d="M21.08,30.77c0,0,0.57,0,1.41,0.03"/>
		<path class="st7" d="M37.33,35.12c0,0-4.37,6.08-4.69,7.53c-0.19,0.86-0.29,1.73-0.31,2.61"/>
		<path class="st7" d="M39.28,37.03c0.84,1.01,1.85,2.36,2.27,3.44c0.49,1.32,0.86,2.67,1.09,4.05"/>
		<path class="st7" d="M37.95,35.55c0,0,0.36,0.36,0.83,0.91"/>
		<path class="st1" d="M33.31,28.84c0,0-0.81-3.04-0.31-5.86s6.92-8.7,6.92-8.7c-0.36,1.82-0.53,3.67-0.53,5.52
			c0,3.21-1.73,11.67-1.73,11.67s1.02-3.89,3.25-5.74c2.23-1.85,9.24-4.73,9.62-4.97c0.38-0.25-1.56,2.46-2.82,4.55
			c-1.26,2.09-8.09,7.71-8.09,7.71s3.81-1.29,6.52-2.03c2.7-0.74,8.75,3.09,8.75,3.09s-4.62-0.49-7.48,0.52
			c-2.87,1.02-7.12,2.24-7.12,2.24s3.89,0.8,5.58,1.99c1.69,1.19,4.05,4.98,4.05,4.98s-3.69-2.54-6.1-2.9
			c-2.4-0.36-5.66-1.58-5.66-1.58c0.12,1.53,0.34,3.05,0.65,4.56c0.54,2.68,2.19,6.04,2.19,6.04s-4.2-2.19-5.35-3.93
			c-1.15-1.73-1.52-5.94-1.52-5.94s-1.91,0.02-3.28,1.99c-1.37,1.97-2.38,7.11-2.38,7.11s-2.24-4.39-2.16-6.75
			c0.08-2.36,5.18-6.48,5.18-6.48s-4.32,0.38-6.5,1.29s-4.08,3.43-4.08,3.43s0-5.71,2.11-7.46c2.11-1.76,8.09-0.74,8.09-0.74
			l-4.66-4.03c-1.17-1.01-2.94-4.29-2.94-4.29s1.95-0.22,5.33,0.91C30.81,25.7,32.43,27.07,33.31,28.84z"/>
		<path class="st7" d="M28.03,26.92c-0.36-0.28-0.71-0.55-1.07-0.81"/>
		<path class="st7" d="M36.51,21.28c-0.56,1.59-1.2,3.69-1.21,5.16c-0.03,2.7,0.09,8.32,0.09,8.32c-1.88-2.58-4.06-4.97-6.5-7.11"/>
		<path class="st7" d="M37.41,18.98c0,0-0.2,0.47-0.48,1.19"/>
		<path class="st7" d="M35.4,34.75c0,0-8.29-1.26-10.59-0.26c-2.3,1-2.99,3.59-2.99,3.59"/>
		<path class="st7" d="M46.92,32.76c1.71-0.09,2.12,0.23,2.12,0.23"/>
		<path class="st7" d="M28.05,45.88c0,0-0.6-2.27,1.42-4.87c2.03-2.6,6.13-5.5,6.13-5.5s7.25-2.13,10.12-2.63"/>
		<path class="st7" d="M37.65,33.13c-1.12,1.33-2.04,2.38-2.04,2.38"/>
		<path class="st7" d="M44.97,25.1c-1.32,1.01-2.96,2.36-3.64,3.4c-0.56,0.86-1.79,2.36-2.96,3.78"/>
		<path class="st7" d="M46.87,23.73c0,0-0.46,0.31-1.13,0.79"/>
		<path class="st7" d="M36.4,36.05c0,0,7.39,2.57,8.55,3.58c0.69,0.6,1.33,1.25,1.89,1.95"/>
		<path class="st7" d="M36.03,38.65c-0.05,1.28-0.03,2.91,0.32,4.03c0.43,1.34,0.99,2.64,1.67,3.89"/>
		<path class="st7" d="M36.17,36.73c0,0-0.06,0.48-0.1,1.19"/>
	</g>
	<g id="freepik--Device--inject-1--inject-142" class="st0">
		<path class="st3" d="M57.63,44.3h82.59c2.15,0,3.89,1.61,3.89,3.6v0v49.63c0,2.18-1.9,3.94-4.25,3.94l0,0H57.99
			c-2.35,0-4.25-1.76-4.25-3.94l0,0V47.9C53.74,45.91,55.48,44.3,57.63,44.3L57.63,44.3z"/>
		<rect x="82.77" y="49.93" class="st8" width="5.09" height="3.1"/>
		<rect x="66.65" y="69.03" class="st8" width="4.72" height="4.34"/>
		<rect x="87.48" y="53.77" class="st8" width="4.76" height="4.34"/>
		<rect x="76.88" y="49.93" class="st8" width="5.09" height="3.1"/>
		<rect x="93.04" y="53.77" class="st8" width="4.76" height="4.34"/>
		<rect x="88.66" y="49.93" class="st8" width="5.09" height="3.1"/>
		<rect x="59.57" y="63.94" class="st8" width="8.95" height="4.34"/>
		<rect x="76.35" y="53.77" class="st8" width="4.76" height="4.34"/>
		<rect x="59.57" y="69.03" class="st8" width="6.28" height="4.34"/>
		<rect x="94.55" y="49.93" class="st8" width="5.09" height="3.1"/>
		<rect x="65.23" y="53.77" class="st8" width="4.76" height="4.34"/>
		<rect x="65.1" y="49.93" class="st8" width="5.09" height="3.1"/>
		<rect x="70.99" y="49.93" class="st8" width="5.09" height="3.1"/>
		<rect x="70.79" y="53.77" class="st8" width="4.76" height="4.34"/>
		<rect x="81.91" y="53.77" class="st8" width="4.76" height="4.34"/>
		<rect x="118.11" y="49.93" class="st8" width="5.09" height="3.1"/>
		<rect x="124" y="49.93" class="st8" width="5.09" height="3.1"/>
		<rect x="120.85" y="53.77" class="st8" width="4.76" height="4.34"/>
		<rect x="126.42" y="53.77" class="st8" width="4.76" height="4.34"/>
		<rect x="132.97" y="69.03" class="st8" width="7.01" height="4.34"/>
		<rect x="129.89" y="49.93" class="st8" width="5.09" height="3.1"/>
		<rect x="59.57" y="53.77" class="st8" width="4.86" height="4.34"/>
		<rect x="100.44" y="49.93" class="st8" width="5.09" height="3.1"/>
		<rect x="106.33" y="49.93" class="st8" width="5.09" height="3.1"/>
		<rect x="104.17" y="53.77" class="st8" width="4.76" height="4.34"/>
		<rect x="115.29" y="53.77" class="st8" width="4.76" height="4.34"/>
		<rect x="98.6" y="53.77" class="st8" width="4.76" height="4.34"/>
		<rect x="109.73" y="53.77" class="st8" width="4.76" height="4.34"/>
		<rect x="112.22" y="49.93" class="st8" width="5.09" height="3.1"/>
		<rect x="105.34" y="69.03" class="st8" width="4.72" height="4.34"/>
		<rect x="130.11" y="63.94" class="st8" width="4.72" height="4.34"/>
		<rect x="124.59" y="63.94" class="st8" width="4.72" height="4.34"/>
		<rect x="127.44" y="69.03" class="st8" width="4.72" height="4.34"/>
		<rect x="121.92" y="69.03" class="st8" width="4.72" height="4.34"/>
		<rect x="110.86" y="69.03" class="st8" width="4.72" height="4.34"/>
		<rect x="116.39" y="69.03" class="st8" width="4.72" height="4.34"/>
		<rect x="119.06" y="63.94" class="st8" width="4.72" height="4.34"/>
		<rect x="113.54" y="63.94" class="st8" width="4.72" height="4.34"/>
		<rect x="135.78" y="49.93" class="st8" width="4.19" height="3.1"/>
		<rect x="59.57" y="49.93" class="st8" width="4.72" height="3.1"/>
		<rect x="59.57" y="74.11" class="st8" width="80.41" height="4.51"/>
		<rect x="131.98" y="53.77" class="st8" width="8" height="4.34"/>
		<rect x="135.64" y="63.94" class="st8" width="4.34" height="4.34"/>
		<polygon class="st8" points="134.3,63.16 133.5,63.16 133.5,58.86 128.78,58.86 128.78,63.16 127.98,63.16 127.98,58.86 
			123.25,58.86 123.25,63.16 122.45,63.16 122.45,58.86 117.73,58.86 117.73,63.16 116.92,63.16 116.92,58.86 112.2,58.86 
			112.2,63.16 111.4,63.16 111.4,58.86 106.67,58.86 106.67,63.16 105.87,63.16 105.87,58.86 101.15,58.86 101.15,63.16 
			100.34,63.16 100.34,58.86 95.62,58.86 95.62,63.16 94.82,63.16 94.82,58.86 90.1,58.86 90.1,63.16 89.29,63.16 89.29,58.86 
			84.57,58.86 84.57,63.16 83.76,63.16 83.76,58.86 79.04,58.86 79.04,63.16 78.24,63.16 78.24,58.86 73.52,58.86 73.52,63.16 
			72.71,63.16 72.71,58.86 67.99,58.86 67.99,63.16 67.18,63.16 67.18,58.86 59.57,58.86 59.57,63.2 139.97,63.2 139.97,58.86 
			134.3,58.86 		"/>
		<rect x="91.43" y="63.94" class="st8" width="4.72" height="4.34"/>
		<rect x="108.01" y="63.94" class="st8" width="4.72" height="4.34"/>
		<rect x="80.38" y="63.94" class="st8" width="4.72" height="4.34"/>
		<rect x="83.23" y="69.03" class="st8" width="4.72" height="4.34"/>
		<rect x="85.9" y="63.94" class="st8" width="4.72" height="4.34"/>
		<rect x="74.85" y="63.94" class="st8" width="4.72" height="4.34"/>
		<rect x="72.18" y="69.03" class="st8" width="4.72" height="4.34"/>
		<rect x="77.7" y="69.03" class="st8" width="4.72" height="4.34"/>
		<rect x="96.96" y="63.94" class="st8" width="4.72" height="4.34"/>
		<rect x="99.81" y="69.03" class="st8" width="4.72" height="4.34"/>
		<rect x="102.48" y="63.94" class="st8" width="4.72" height="4.34"/>
		<rect x="88.76" y="69.03" class="st8" width="4.72" height="4.34"/>
		<rect x="94.28" y="69.03" class="st8" width="4.72" height="4.34"/>
		<rect x="69.32" y="63.94" class="st8" width="4.72" height="4.34"/>
		<path class="st4" d="M149.27,13.24H48.09c-1.79,0-3.23,1.34-3.23,3c0,0.26,0.04,0.52,0.11,0.77l7.4,25.52
			c0.38,1.31,1.66,2.22,3.12,2.22h10.33v1.77h66.2v-1.76h9.84c1.46,0,2.74-0.91,3.12-2.22l7.4-25.52c0.47-1.6-0.55-3.25-2.27-3.68
			C149.83,13.28,149.55,13.24,149.27,13.24z"/>
		<polygon class="st6" points="137.82,42.5 59.53,42.5 51.7,16.4 145.65,16.4 		"/>
		<path class="st8" d="M64.73,31.04v0.34h-1.38v-0.34H64.73z"/>
		<path class="st8" d="M66.45,31.04v0.34h-1.38v-0.34H66.45z"/>
		<path class="st8" d="M68.17,31.04v0.34H66.8v-0.34H68.17z"/>
		<path class="st8" d="M69.89,31.04v0.34h-1.38v-0.34H69.89z"/>
		<path class="st8" d="M71.61,31.04v0.34h-1.38v-0.34H71.61z"/>
		<path class="st8" d="M73.33,31.04v0.34h-1.38v-0.34H73.33z"/>
		<path class="st8" d="M75.04,31.04v0.34h-1.38v-0.34H75.04z"/>
		<path class="st8" d="M76.74,32.82l-1.52-3.76h0.36l1.52,3.76H76.74z"/>
		<path class="st8" d="M63.34,25.57v0.34h-1.38v-0.34H63.34z"/>
		<path class="st8" d="M65.06,25.57v0.34h-1.38v-0.34H65.06z"/>
		<path class="st8" d="M66.8,25.57v0.34h-1.38v-0.34H66.8z"/>
		<path class="st8" d="M68.5,25.57v0.34h-1.38v-0.34H68.5z"/>
		<path class="st8" d="M70.21,25.57v0.34h-1.38v-0.34H70.21z"/>
		<path class="st8" d="M73.12,25.57v0.34h-1.38v-0.34H73.12z"/>
		<path class="st8" d="M74.84,25.57v0.34h-1.38v-0.34H74.84z"/>
		<path class="st8" d="M76.56,25.57v0.34h-1.38v-0.34H76.56z"/>
		<path class="st8" d="M78.28,25.57v0.34h-1.38v-0.34H78.28z"/>
		<path class="st8" d="M79.99,25.57v0.34h-1.38v-0.34H79.99z"/>
		<path class="st8" d="M81.71,25.57v0.34h-1.38v-0.34H81.71z"/>
		<path class="st8" d="M83.43,25.57v0.34h-1.38v-0.34H83.43z"/>
		<path class="st8" d="M86.34,25.57v0.34h-1.38v-0.34H86.34z"/>
		<path class="st8" d="M88.06,25.57v0.34h-1.38v-0.34H88.06z"/>
		<path class="st8" d="M89.78,25.57v0.34h-1.38v-0.34H89.78z"/>
		<path class="st8" d="M92.67,25.57v0.34h-1.38v-0.34H92.67z"/>
		<path class="st8" d="M94.4,25.57v0.34h-1.37v-0.34H94.4z"/>
		<path class="st8" d="M96.12,25.57v0.34h-1.38v-0.34H96.12z"/>
		<path class="st8" d="M102.59,25.57v0.34h-1.38v-0.34H102.59z"/>
		<path class="st8" d="M104.31,25.57v0.34h-1.38v-0.34H104.31z"/>
		<path class="st8" d="M106.03,25.57v0.34h-1.38v-0.34H106.03z"/>
		<path class="st8" d="M107.74,25.57v0.34h-1.38v-0.34H107.74z"/>
		<path class="st8" d="M109.46,25.57v0.34h-1.38v-0.34H109.46z"/>
		<path class="st8" d="M112.37,25.57v0.34h-1.38v-0.34H112.37z"/>
		<path class="st8" d="M114.09,25.57v0.34h-1.38v-0.34H114.09z"/>
		<path class="st8" d="M115.81,25.57v0.34h-1.38v-0.34H115.81z"/>
		<path class="st8" d="M118.71,25.57v0.34h-1.38v-0.34H118.71z"/>
		<path class="st8" d="M121.62,25.57v0.34h-1.38v-0.34H121.62z"/>
	</g>
	<g id="freepik--Notebook--inject-1--inject-142" class="st0">
		<polygon class="st3" points="144.66,81.05 140.76,94.99 144.45,95.99 		"/>
		<path class="st9" d="M146.41,66.32c-0.44-0.63-0.6-1.39-0.45-2.12c0.2-1.37,1.99-1.69,1.99-1.69s0.39-0.27,1.82,0.23
			s12.51,1.89,19.58,2.78c7.08,0.89,9.37,0.31,9.27,2.57c-0.1,2.25-6.31,22.46-6.4,23.1C172.13,91.82,146.41,66.32,146.41,66.32z"/>
		<polygon class="st3" points="146.41,66.32 176.17,70.06 171.36,102.94 141.6,99.2 		"/>
		<line class="st7" x1="170.64" y1="76.62" x2="172.37" y2="76.84"/>
		<line class="st7" x1="159.8" y1="75.26" x2="169.27" y2="76.45"/>
		<line class="st7" x1="148.32" y1="73.82" x2="158.43" y2="75.09"/>
		<line class="st7" x1="167.93" y1="79.26" x2="171.94" y2="79.76"/>
		<line class="st7" x1="147.9" y1="76.74" x2="163.82" y2="78.74"/>
		<line class="st7" x1="155.98" y1="80.73" x2="171.52" y2="82.68"/>
		<line class="st7" x1="147.47" y1="79.66" x2="154.38" y2="80.53"/>
		<line class="st7" x1="161.14" y1="84.36" x2="171.09" y2="85.61"/>
		<line class="st7" x1="152.7" y1="83.3" x2="160" y2="84.21"/>
		<line class="st7" x1="147.04" y1="82.59" x2="151.44" y2="83.14"/>
		<line class="st7" x1="167.1" y1="88.08" x2="170.66" y2="88.53"/>
		<line class="st7" x1="146.61" y1="85.51" x2="164.71" y2="87.78"/>
		<line class="st7" x1="160.17" y1="90.19" x2="170.24" y2="91.45"/>
		<line class="st7" x1="146.18" y1="88.43" x2="158.46" y2="89.97"/>
		<line class="st7" x1="163.28" y1="93.56" x2="169.81" y2="94.37"/>
		<line class="st7" x1="150.05" y1="91.89" x2="161.68" y2="93.35"/>
		<line class="st7" x1="145.76" y1="91.35" x2="148.68" y2="91.72"/>
		<path class="st10" d="M176.18,70.06c0,0,0.51-4.58,2.33-2.74"/>
		<polygon class="st3" points="166.08,105.38 166.05,108.3 164.22,105.9 156.86,82.97 158.73,82.46 		"/>
		<polygon class="st11" points="156.98,83.71 158,83.43 165.22,106.4 164.21,106.67 		"/>
		<polygon class="st10" points="166.08,105.39 164.22,105.9 166.05,108.3 		"/>
		<polygon class="st4" points="165.13,107.1 166.05,108.3 166.07,106.84 		"/>
		<path class="st3" d="M156.97,80.15L156.97,80.15c-0.51,0.14-0.81,0.64-0.66,1.12l0.55,1.7l1.87-0.51l-0.55-1.7
			C158.02,80.28,157.48,80.01,156.97,80.15z"/>
		<path class="st4" d="M156.97,80.15L156.97,80.15c-0.51,0.14-0.81,0.64-0.66,1.12l0.26,0.81l1.86-0.51l-0.26-0.81
			C158.02,80.28,157.48,80.01,156.97,80.15z"/>
	</g>
	<g id="freepik--Character--inject-1--inject-142" class="st0">
		<path class="st12" d="M65.21,66.6c-0.23,0.3-0.46,0.62-0.69,0.96"/>
		<path class="st12" d="M69.02,62.54c-1.02,0.87-1.95,1.82-2.81,2.83"/>
		<path class="st12" d="M64.89,64.33c-1,1.29-1.9,2.65-2.7,4.05"/>
		<path class="st12" d="M90.59,71.76c-0.23,0.3-0.46,0.62-0.69,0.95"/>
		<path class="st12" d="M94.4,67.69c-1.01,0.87-1.95,1.82-2.81,2.83"/>
		<path class="st12" d="M90.27,69.48c-0.99,1.3-1.9,2.66-2.7,4.07"/>
		<path class="st12" d="M126.96,63.4c-0.33-0.21-0.68-0.42-1.04-0.63"/>
		<path class="st12" d="M131.4,66.87c-0.96-0.92-1.99-1.78-3.09-2.56"/>
		<path class="st12" d="M129.41,63.06c-1.42-0.9-2.9-1.72-4.43-2.44"/>
		<path class="st10" d="M89.48,84.33c-0.19,1.27-0.47,3.04-0.76,4.09"/>
		<path class="st10" d="M89.69,82.79c0,0-0.03,0.24-0.08,0.63"/>
		<path class="st10" d="M90.66,86.39c-0.4,1.23-0.88,2.43-1.46,3.6"/>
		<path class="st10" d="M108.88,88.19c0,0,0.24,2.93,1.94,4.5"/>
		<path class="st10" d="M108.64,91.12c0,0,0.73,2.03,2.19,2.93"/>
		<path class="st6" d="M59.15,106.76c0,0,1.62-1.21,1.62-11.57s1.86-17.93,4.16-21.25c2.3-3.32,4.44-4.65,5.45-4.65
			c1.01,0,0.28,1.2-1.15,2.92s-2.72,2.66-3.3,4.78c-0.58,2.13-0.57,4.78,0.15,4.51c0.72-0.27,1.86-5.58,2.86-7.57
			c1-1.99,3.44-4.52,4.88-5.71c1.43-1.2,4.59-4.78,6.02-3.85c1.43,0.93,0.58,2.26-0.28,2.79s-4.3,3.71-5.88,5.71
			s-2.58,7.04-1.72,7.17s3.44-7.3,4.87-8.9s7.17-5.98,8.46-6.11c1.29-0.13,1.44,1.73,0.29,2.66c-1.15,0.93-5.02,4.91-6.31,7.3
			s-1.87,6.78-0.73,5.71c1.14-1.06,3.01-5.45,4.59-6.91c1.58-1.46,6.31-6.11,7.46-5.58c1.15,0.53,0.86,1.86-0.14,2.79
			c-1,0.93-4.88,5.98-5.88,8.63c-1,2.65-2.15,10.09-1.58,9.03c0.58-1.06,2.44-6.51,3.44-8.78c1-2.27,3.01-3.32,3.3-2.26
			c0.29,1.06-0.29,1.59-1.01,3.99c-0.72,2.39-0.73,8.78-2.86,12.35c-2.14,3.57-10.71,11.22-11.85,13.87
			c-0.83,1.83-1.82,3.59-2.96,5.27"/>
		<path class="st6" d="M138.78,107.66c0,0-1.66-2.1-1.66-12.46s-1.87-17.93-4.16-21.25c-2.29-3.32-4.45-4.65-5.45-4.65
			s-0.29,1.2,1.15,2.92s2.72,2.66,3.28,4.78c0.56,2.13,0.58,4.78-0.14,4.51c-0.72-0.27-1.86-5.58-2.87-7.57
			c-1.01-1.99-3.44-4.52-4.87-5.71c-1.43-1.2-4.59-4.78-6.02-3.85c-1.44,0.93-0.57,2.26,0.29,2.79s4.3,3.71,5.88,5.71
			s2.58,7.04,1.72,7.17c-0.86,0.13-3.43-7.3-4.86-8.89c-1.43-1.59-7.17-5.98-8.46-6.11c-1.29-0.13-1.43,1.73-0.28,2.66
			c1.15,0.93,5.02,4.91,6.31,7.3c1.29,2.39,1.86,6.78,0.73,5.71c-1.13-1.06-3.01-5.45-4.58-6.91c-1.57-1.46-6.31-6.11-7.46-5.58
			c-1.15,0.53-0.86,1.86,0.14,2.79c1,0.93,4.88,5.98,5.88,8.63s2.15,10.09,1.58,9.03c-0.57-1.06-2.44-6.51-3.44-8.78
			c-1-2.27-3.01-3.32-3.3-2.26c-0.29,1.06,0.29,1.59,1,3.99s0.73,8.78,2.87,12.35c2.14,3.57,10.46,10.54,11.61,13.2
			c1.15,2.66,3.22,6.84,3.22,6.84"/>
		<path class="st3" d="M58.6,109.32c0,0,2.15-6.51,2.15-16.88s1.86-17.93,4.16-21.25c2.3-3.32,4.44-4.65,5.45-4.65
			c1.01,0,0.28,1.2-1.15,2.92c-1.43,1.73-2.72,2.66-3.3,4.78s-0.57,4.78,0.15,4.52c0.72-0.27,1.86-5.58,2.86-7.57
			c1-1.99,3.44-4.52,4.88-5.71c1.43-1.2,4.59-4.78,6.02-3.85s0.58,2.26-0.28,2.79s-4.3,3.71-5.88,5.71c-1.57,2-2.58,7.04-1.72,7.17
			c0.86,0.13,3.44-7.3,4.87-8.9c1.43-1.6,7.17-5.98,8.46-6.11c1.29-0.13,1.44,1.73,0.29,2.66c-1.15,0.93-5.02,4.91-6.31,7.3
			s-1.87,6.78-0.73,5.71c1.14-1.06,3.01-5.45,4.59-6.91c1.58-1.46,6.31-6.11,7.46-5.58c1.15,0.53,0.86,1.86-0.14,2.79
			c-1,0.93-4.88,5.98-5.88,8.63c-1,2.66-2.15,10.09-1.58,9.03c0.58-1.06,2.44-6.51,3.44-8.78c1-2.27,3.01-3.32,3.3-2.26
			c0.29,1.06-0.29,1.59-1.01,3.98s-0.73,8.78-2.86,12.35c-2.14,3.58-10.46,13.28-11.61,15.94c-1.15,2.66-3.73,8.5-3.73,8.5"/>
		<path class="st3" d="M139.27,109.32c0,0-2.15-6.51-2.15-16.88s-1.87-17.93-4.16-21.25s-4.45-4.65-5.45-4.65s-0.29,1.2,1.15,2.92
			c1.44,1.73,2.72,2.66,3.28,4.78s0.58,4.78-0.14,4.52c-0.72-0.27-1.86-5.58-2.87-7.57c-1.01-1.99-3.44-4.52-4.87-5.71
			c-1.43-1.2-4.59-4.78-6.02-3.85c-1.44,0.93-0.57,2.26,0.29,2.79s4.3,3.71,5.88,5.71c1.58,2,2.58,7.04,1.72,7.17
			c-0.86,0.13-3.44-7.3-4.87-8.9c-1.43-1.6-7.17-5.98-8.46-6.11c-1.29-0.13-1.43,1.73-0.28,2.66c1.15,0.93,5.02,4.91,6.31,7.3
			c1.29,2.39,1.86,6.78,0.73,5.71c-1.13-1.06-3.01-5.45-4.58-6.91c-1.57-1.46-6.31-6.11-7.46-5.58c-1.15,0.53-0.86,1.86,0.14,2.79
			c1,0.93,4.88,5.98,5.88,8.63c1,2.66,2.15,10.09,1.58,9.03c-0.57-1.06-2.44-6.51-3.44-8.78c-1-2.27-3.01-3.32-3.3-2.26
			c-0.29,1.06,0.29,1.59,1,3.98s0.73,8.78,2.87,12.35c2.14,3.58,10.46,13.28,11.61,15.94c1.15,2.66,3.73,8.5,3.73,8.5"/>
		<path class="st4" d="M49.53,129.57h21.86c0.28-1.01,0.64-2.15,1.09-3.38c1.72-4.77,7.29-10.74,7.29-10.74
			c-3.99-3.26-8.68-5.69-13.76-7.15c-8.38-2.39-14.52-1.69-14.52-1.69c1.13,4.32,1.25,8.8,0.36,13.17
			C50.76,124.7,50.04,127.81,49.53,129.57z"/>
		<path class="st4" d="M126.34,129.57h22.72c-0.73-1.75-2.3-5.55-3.88-9.35c-2.15-5.17-1.29-12.13-2.15-12.13
			c-0.86,0-10.52-0.6-15.24,0.79s-10.09,5.37-10.09,5.37c2.43,2.62,4.52,5.49,6.23,8.56C125.01,124.97,125.83,127.24,126.34,129.57z
			"/>
		<path class="st13" d="M63.18,110.73c-0.16-0.57-2.49,0.29-2.49,0.29s0.78-2.73-0.46-2.73c-1.24,0-1.4,2.03-1.4,2.03
			s-2.33-0.86-2.33,0.43s1.55,1.27,1.55,1.27s-1.87,2.16-0.47,2.59c1.4,0.43,2.33-1.15,2.33-1.15s0.93,1.44,2.19,0.86
			s0.31-1.87,0.31-1.87S63.34,111.31,63.18,110.73z M60.07,112.89c-0.34-0.07-0.56-0.39-0.48-0.71c0.08-0.32,0.42-0.52,0.76-0.45
			c0.29,0.06,0.5,0.3,0.5,0.58C60.8,112.67,60.46,112.92,60.07,112.89z M66.6,126.87c-0.16-0.57-2.49,0.29-2.49,0.29
			s0.78-2.73-0.47-2.73c-1.25,0-1.4,2.03-1.4,2.03s-2.33-0.86-2.33,0.43c0,1.29,1.56,1.3,1.56,1.3s-1.87,2.16-0.47,2.59
			c1.4,0.43,2.33-1.15,2.33-1.15s0.93,1.44,2.19,0.86c1.25-0.58,0.31-1.87,0.31-1.87S66.75,127.43,66.6,126.87z M63.49,129.03
			c-0.34-0.07-0.56-0.39-0.48-0.71c0.08-0.32,0.42-0.52,0.76-0.45c0.29,0.06,0.5,0.3,0.5,0.58c-0.05,0.35-0.4,0.6-0.78,0.56
			L63.49,129.03z M52.93,129.03c-0.16-0.58-2.49,0.29-2.49,0.29s0.78-2.73-0.47-2.73s-1.4,2.03-1.4,2.03s-2.33-0.86-2.33,0.43
			s1.56,1.3,1.56,1.3s-1.87,2.16-0.47,2.59c1.4,0.43,2.33-1.15,2.33-1.15s0.93,1.44,2.19,0.86s0.31-1.87,0.31-1.87
			s0.92-1.18,0.77-1.76L52.93,129.03z M49.82,131.19c-0.34-0.07-0.56-0.39-0.48-0.71c0.08-0.32,0.42-0.52,0.76-0.45
			c0.29,0.06,0.5,0.3,0.5,0.58c-0.06,0.35-0.4,0.59-0.77,0.56L49.82,131.19z M69.86,117.8h1.71c1.24,0,2.02,1.3,2.02,1.3
			c-2.64,0.7-3.72-1.31-3.72-1.31L69.86,117.8z M68.15,129.03h1.71c1.24,0,2.02,1.3,2.02,1.3c-2.64,0.7-3.72-1.31-3.72-1.31
			L68.15,129.03z M53.24,126.87h1.71c1.24,0,2.02,1.3,2.02,1.3C54.32,128.87,53.24,126.87,53.24,126.87z M61.5,116.71l1,1.29
			c0.73,0.94,0.04,2.28,0.04,2.28c-2.17-1.58-1.04-3.58-1.04-3.58L61.5,116.71z M52.95,121.01l0.78-1.41
			c0.57-1.01,2.17-1.07,2.17-1.07C55.36,121.04,52.95,121.01,52.95,121.01z"/>
		<path class="st13" d="M136.35,113.47c-0.16-0.57-2.49,0.29-2.49,0.29s0.78-2.73-0.46-2.73s-1.4,2.03-1.4,2.03
			s-2.33-0.86-2.33,0.43s1.56,1.3,1.56,1.3s-1.87,2.16-0.47,2.59s2.33-1.15,2.33-1.15s0.93,1.44,2.19,0.86s0.31-1.87,0.31-1.87
			S136.51,114.04,136.35,113.47z M133.24,115.63c-0.34-0.07-0.56-0.39-0.48-0.71c0.08-0.32,0.42-0.52,0.76-0.45
			c0.29,0.06,0.5,0.3,0.5,0.58C133.97,115.41,133.63,115.66,133.24,115.63L133.24,115.63z M143.65,124.7
			c-0.15-0.58-2.49,0.29-2.49,0.29s0.78-2.73-0.47-2.73c-1.24,0-1.4,2.03-1.4,2.03s-2.33-0.86-2.33,0.43s1.55,1.3,1.55,1.3
			s-1.86,2.16-0.46,2.59c1.4,0.43,2.33-1.15,2.33-1.15s0.93,1.44,2.19,0.86c1.25-0.57,0.31-1.87,0.31-1.87
			S143.81,125.27,143.65,124.7z M140.55,126.87c-0.34-0.07-0.56-0.39-0.48-0.71c0.08-0.32,0.42-0.52,0.76-0.45
			c0.29,0.06,0.5,0.3,0.5,0.58C141.28,126.65,140.93,126.91,140.55,126.87z M135.89,129.03c-0.16-0.58-2.49,0.29-2.49,0.29
			s0.78-2.73-0.47-2.73c-1.24,0-1.4,2.03-1.4,2.03s-2.33-0.86-2.33,0.43s1.56,1.3,1.56,1.3s-1.87,2.16-0.47,2.59
			s2.33-1.15,2.33-1.15s0.93,1.44,2.19,0.86c1.25-0.57,0.31-1.87,0.31-1.87s0.91-1.18,0.77-1.76V129.03z M132.78,131.19
			c-0.34-0.07-0.56-0.39-0.48-0.71c0.08-0.32,0.42-0.52,0.76-0.45c0.29,0.06,0.5,0.3,0.5,0.58c-0.06,0.35-0.4,0.59-0.78,0.56V131.19
			z M143.03,120.54h1.71c1.24,0,2.02,1.3,2.02,1.3c-2.64,0.7-3.73-1.31-3.73-1.31L143.03,120.54z M124.7,128.73h1.71
			c1.24,0,2.02,1.29,2.02,1.29C125.79,130.74,124.7,128.73,124.7,128.73z M134.67,119.44l1,1.29c0.73,0.94,0.04,2.28,0.04,2.28
			C133.54,121.43,134.67,119.44,134.67,119.44z M144.77,127.49l0.99,1.29c0.73,0.94,0.04,2.28,0.04,2.28
			C143.64,129.48,144.77,127.49,144.77,127.49z M126.11,123.75l0.78-1.41c0.57-1.01,2.19-1.07,2.19-1.07
			C128.53,123.77,126.1,123.75,126.11,123.75L126.11,123.75z"/>
	</g>
</g>
</svg>
